<?xml version="1.0" standalone="no"?><!DOCTYPE svg PUBLIC "-//W3C//DTD SVG 1.1//EN" "http://www.w3.org/Graphics/SVG/1.1/DTD/svg11.dtd"><svg t="1646447820419" class="icon" viewBox="0 0 1707 1024" version="1.1" xmlns="http://www.w3.org/2000/svg" p-id="2823" xmlns:xlink="http://www.w3.org/1999/xlink" width="80.015625" height="48"><defs><style type="text/css"></style></defs><path d="M1054.24888 474.249496H652.374307c-13.999985 0-25.249973 11.374988-25.249973 25.249974 0 13.999985 11.374988 25.249973 25.249973 25.249973h401.874573c13.999985 0 25.249973-11.374988 25.249974-25.249973s-11.249988-25.249973-25.249974-25.249974zM878.624067 698.499258h-226.24976c-13.999985 0-25.249973 11.374988-25.249973 25.249973 0 13.999985 11.374988 25.249973 25.249973 25.249974h226.24976c13.999985 0 25.249973-11.374988 25.249973-25.249974s-11.374988-25.249973-25.249973-25.249973z" fill="#f34bdd" p-id="2824"></path><path d="M1271.748649 211.249776c-15.874983-36.999961-52.249945-60.999935-92.499901-60.874936h-75.24992v-12.499986c-0.125-34.499963-28.24997-62.374934-62.749934-62.374934h-64.999931c-23.624975-46.249951-71.249924-75.49992-123.374869-75.49992-51.999945 0-99.749894 29.124969-123.374869 75.49992h-64.874931c-34.499963-0.125-62.624933 27.749971-62.749933 62.374934v12.249987h-1.124999v0.249999h-74.249921c-40.249957-0.125-76.624919 23.874975-92.499902 60.874936-5.249994 12.249987-7.874992 25.499973-7.874992 38.874958V924.374018c0 26.499972 10.624989 51.749945 29.374969 70.374926 18.87498 18.74998 44.374953 29.374969 70.999925 29.249969h652.499307c40.249957 0.125 76.624919-23.874975 92.499902-60.874936 5.249994-12.249987 7.874992-25.499973 7.874991-38.749959V249.999734c0.25-13.374986-2.499997-26.499972-7.624992-38.749958zM652.249307 137.874854c0-6.874993 5.624994-12.374987 12.499987-12.374987h99.374894l5.874994-16.749982c12.374987-35.124963 45.749951-58.749938 82.999912-58.749938 37.37496 0 70.624925 23.499975 82.999912 58.749938l5.874994 16.749982H1041.248894c6.874993 0 12.499987 5.499994 12.499987 12.374987v112.12488H652.249307V137.874854zM1229.373694 924.374018c-0.125 27.624971-22.624976 49.874947-50.124946 49.749947h-652.499307c-27.624971 0-49.999947-22.249976-50.124947-49.749947V249.999734c0.125-27.624971 22.624976-49.874947 50.124947-49.749947h75.24992v99.624895h501.999467v-99.624895h75.24992c27.624971 0 49.999947 22.249976 50.124946 49.749947V924.374018z" fill="#f34bdd" p-id="2825"></path></svg>