<?xml version="1.0" standalone="no"?><!DOCTYPE svg PUBLIC "-//W3C//DTD SVG 1.1//EN" "http://www.w3.org/Graphics/SVG/1.1/DTD/svg11.dtd"><svg t="1646447542197" class="icon" viewBox="0 0 1025 1024" version="1.1" xmlns="http://www.w3.org/2000/svg" p-id="1717" xmlns:xlink="http://www.w3.org/1999/xlink" width="48.046875" height="48"><defs><style type="text/css"></style></defs><path d="M978.411422 563.726961 555.637716 985.205733c-51.88755 51.725683-136.013241 51.725683-187.900791 0L38.915662 657.390504c-51.88755-51.725683-51.88755-135.603452 0-187.322988L461.689369 48.592842C493.984881 14.807745 500.176801 0 534.060248 0l429.459423 0c33.883447 0 61.351639 27.384185 61.351639 61.165185l0 428.139901C1024.87131 523.084036 1005.629643 536.594796 978.411422 563.726961zM85.889836 610.557708l328.823311 327.817278c25.943775 25.859768 68.004572 25.859768 93.950396 0l46.478328-46.334902L133.359854 469.567573l-47.470019 47.326592C59.946061 542.758031 59.946061 584.691793 85.889836 610.557708zM963.519671 91.749826c0-16.891524-13.734096-30.582592-30.674795-30.582592L564.737092 61.167234c-16.942748 0-40.997393 19.219129-56.07355 34.250209L180.344272 422.730679 602.607791 844.719639l328.827409-327.823425c16.547301-16.496077 32.084471-41.27605 32.084471-58.167574L963.519671 91.749826zM626.101025 399.819346c-51.88755-51.727732-51.88755-135.593207 0-187.31889 51.885501-51.73183 136.013241-51.73183 187.898742 0 51.88755 51.725683 51.88755 135.591158 0 187.31889C762.112217 451.54298 677.986525 451.54298 626.101025 399.819346zM767.023544 259.325057c-25.943775-25.861817-68.004572-25.861817-93.950396 0-25.945824 25.865915-25.945824 67.797628 0 93.665592 25.945824 25.859768 68.006621 25.859768 93.950396 0C792.969368 327.122685 792.969368 285.190971 767.023544 259.325057z" p-id="1718" fill="#e035b9"></path></svg>