<?xml version="1.0" standalone="no"?><!DOCTYPE svg PUBLIC "-//W3C//DTD SVG 1.1//EN" "http://www.w3.org/Graphics/SVG/1.1/DTD/svg11.dtd"><svg t="1646448098383" class="icon" viewBox="0 0 1024 1024" version="1.1" xmlns="http://www.w3.org/2000/svg" p-id="4067" xmlns:xlink="http://www.w3.org/1999/xlink" width="48" height="48"><defs><style type="text/css"></style></defs><path d="M284.0576 265.472a34.1504 34.1504 0 1 1 48.1792 48.384 268.4416 268.4416 0 0 0-78.6944 190.8736c0 146.944 115.9168 265.728 258.4576 265.728 142.5408 0 258.4576-118.784 258.4576-265.728a268.4928 268.4928 0 0 0-76.544-188.7232 34.1504 34.1504 0 0 1 48.6912-47.8208 336.7424 336.7424 0 0 1 96.1024 236.544c0 184.2688-146.0736 333.9776-326.7072 333.9776s-326.7072-149.7088-326.7072-333.9776c0-91.2896 36.0448-176.7936 98.816-239.2576z" p-id="4068"></path><path d="M512 161.8944c17.664 0 32.256 13.4144 33.9456 30.6176l0.2048 3.5328V500.224a34.1504 34.1504 0 0 1-68.096 3.5328l-0.2048-3.5328V196.096c0-18.8928 15.3088-34.1504 34.1504-34.1504z" p-id="4069"></path></svg>